# xmcd
#
# Track frame offsets:
#	150
#	20485
#	39995
#	56740
#	74145
#	91467
#	110535
#	126795
#	146915
#	164220
#	178732
#	199740
#	219390
#
# Disc length: 3198 seconds
#
# Revision: 4
# Processed by: cddbd v1.5.2PL0 Copyright (c) Steve Scherf et al.
# Submitted via: EasyCDDAExtractor 15.3.0.1
#
DISCID=ce0c7c0d
DTITLE=Olga Tañon - Una Nueva Mujer
DYEAR=2005
DGENRE=Latin
TTITLE0=Bandolero (Pop)
TTITLE1=Una Nueva Mujer
TTITLE2=Muero De Amor
TTITLE3=Vete Vete
TTITLE4=Desde Que Llegaste A Mi
TTITLE5=Dime Si Tu Me Puedes Querer
TTITLE6=Abre Tu Corazon
TTITLE7=Damelo Todo
TTITLE8=Cuidado Con El Deseo
TTITLE9=Maldito Seductor
TTITLE10=Sin Ti No Puedo Vivir
TTITLE11=Bandolero (Merengue)
TTITLE12=Bandolero (Cumbia)
EXTD=
EXTT0=
EXTT1=
EXTT2=
EXTT3=
EXTT4=
EXTT5=
EXTT6=
EXTT7=
EXTT8=
EXTT9=
EXTT10=
EXTT11=
EXTT12=
PLAYORDER=
